# xmcd
# 
# Track frame offsets:
#     187
#     9875
#     14242
#     20682
# 
# Disc length: 327
# 
# Revision: 2
# Processed by: cddbd v1.5.2PL0 Copyright (c) Steve Scherf et al.
# Submitted via: fre:ac v1.0.17
# 
DISCID=27014504
DTITLE=Black Flag - Nervous Breakdown
DYEAR=0
DGENRE=
TTITLE0=Nervous Breakdown
TTITLE1=Fix Me
TTITLE2=I've had It
TTITLE3=Wasted
EXTD=
EXTT0=
EXTT1=
EXTT2=
EXTT3=
PLAYORDER=
